HIERARCHY
ROOT Hips
{
	OFFSET 0.00000 0.00000 0.00000
	CHANNELS 6 Xposition Yposition Zposition Zrotation Yrotation Xrotation 
	JOINT LHipJoint
	{
		OFFSET 0 0 0
		CHANNELS 3 Zrotation Yrotation Xrotation
		JOINT LeftUpLeg
		{
			OFFSET 1.37590 -1.78394 0.89329
			CHANNELS 3 Zrotation Yrotation Xrotation
			JOINT LeftLeg
			{
				OFFSET 2.47928 -6.81178 0.00000
				CHANNELS 3 Zrotation Yrotation Xrotation
				JOINT LeftFoot
				{
					OFFSET 2.63345 -7.23535 0.00000
					CHANNELS 3 Zrotation Yrotation Xrotation
					JOINT LeftToeBase
					{
						OFFSET 0.23938 -0.65768 2.27012
						CHANNELS 3 Zrotation Yrotation Xrotation
						End Site
						{
							OFFSET 0.00000 -0.00000 1.18363
						}
					}
				}
			}
		}
	}
	JOINT RHipJoint
	{
		OFFSET 0 0 0
		CHANNELS 3 Zrotation Yrotation Xrotation
		JOINT RightUpLeg
		{
			OFFSET -1.33617 -1.78394 0.89329
			CHANNELS 3 Zrotation Yrotation Xrotation
			JOINT RightLeg
			{
				OFFSET -2.56922 -7.05888 0.00000
				CHANNELS 3 Zrotation Yrotation Xrotation
				JOINT RightFoot
				{
					OFFSET -2.56568 -7.04915 0.00000
					CHANNELS 3 Zrotation Yrotation Xrotation
					JOINT RightToeBase
					{
						OFFSET -0.27533 -0.75646 2.18105
						CHANNELS 3 Zrotation Yrotation Xrotation
						End Site
						{
							OFFSET -0.00000 -0.00000 1.15233
						}
					}
				}
			}
		}
	}
	JOINT LowerBack
	{
		OFFSET 0 0 0
		CHANNELS 3 Zrotation Yrotation Xrotation
		JOINT Spine
		{
			OFFSET 0.06190 2.15152 -0.00935
			CHANNELS 3 Zrotation Yrotation Xrotation
			JOINT Spine1
			{
				OFFSET 0.06334 2.15332 0.00872
				CHANNELS 3 Zrotation Yrotation Xrotation
				JOINT Neck
				{
					OFFSET 0 0 0
					CHANNELS 3 Zrotation Yrotation Xrotation
					JOINT Neck1
					{
						OFFSET -0.04202 1.66908 0.23524
						CHANNELS 3 Zrotation Yrotation Xrotation
						JOINT Head
						{
							OFFSET 0.07510 1.69357 -0.24440
							CHANNELS 3 Zrotation Yrotation Xrotation
							End Site
							{
								OFFSET 0.02556 1.71719 -0.11000
							}
						}
					}
				}
				JOINT LeftShoulder
				{
					OFFSET 0 0 0
					CHANNELS 3 Zrotation Yrotation Xrotation
					JOINT LeftArm
					{
						OFFSET 3.67168 1.26306 -0.41342
						CHANNELS 3 Zrotation Yrotation Xrotation
						JOINT LeftForeArm
						{
							OFFSET 4.68510 -0.00000 -0.00000
							CHANNELS 3 Zrotation Yrotation Xrotation
							JOINT LeftHand
							{
								OFFSET 3.39626 -0.00000 -0.00000
								CHANNELS 3 Zrotation Yrotation Xrotation
								JOINT LeftFingerBase
								{
									OFFSET 0 0 0
									CHANNELS 3 Zrotation Yrotation Xrotation
									JOINT LeftHandIndex1
									{
										OFFSET 0.48608 -0.00000 -0.00000
										CHANNELS 3 Zrotation Yrotation Xrotation
										End Site
										{
											OFFSET 0.39189 -0.00000 -0.00000
										}
									}
								}
								JOINT LThumb
								{
									OFFSET 0 0 0
									CHANNELS 3 Zrotation Yrotation Xrotation
									End Site
									{
										OFFSET 0.39787 -0.00000 0.39787
									}
								}
							}
						}
					}
				}
				JOINT RightShoulder
				{
					OFFSET 0 0 0
					CHANNELS 3 Zrotation Yrotation Xrotation
					JOINT RightArm
					{
						OFFSET -3.04136 1.42992 -0.76390
						CHANNELS 3 Zrotation Yrotation Xrotation
						JOINT RightForeArm
						{
							OFFSET -5.55576 -0.00000 -0.00000
							CHANNELS 3 Zrotation Yrotation Xrotation
							JOINT RightHand
							{
								OFFSET -3.32774 -0.00000 -0.00000
								CHANNELS 3 Zrotation Yrotation Xrotation
								JOINT RightFingerBase
								{
									OFFSET 0 0 0
									CHANNELS 3 Zrotation Yrotation Xrotation
									JOINT RightHandIndex1
									{
										OFFSET -0.50763 -0.00000 -0.00000
										CHANNELS 3 Zrotation Yrotation Xrotation
										End Site
										{
											OFFSET -0.40926 -0.00000 -0.00000
										}
									}
								}
								JOINT RThumb
								{
									OFFSET 0 0 0
									CHANNELS 3 Zrotation Yrotation Xrotation
									End Site
									{
										OFFSET -0.41551 -0.00000 0.41551
									}
								}
							}
						}
					}
				}
			}
		}
	}
}
MOTION
Frames: 10
Frame Time: .0083333
-8.6571 17.9367 4.7157 232.7430 -83.8437 -224.8020 0.0000 0.0000 0.0000 -14.0230 -11.2908 -20.4571 1.2811 7.1727 20.2282 0.0461 2.3846 -5.6458 0.0008 -0.1808 -0.4968 0.0000 0.0000 0.0000 23.3988 0.9207 -11.3647 -6.3915 -14.7973 46.5336 0.0829 -5.6076 0.4369 -0.0014 -0.2390 0.6568 2.8399 3.1403 -1.3070 1.7165 4.1520 -1.8880 0.1885 2.0357 -1.1310 -4.6854 -1.9299 -19.1203 7.0508 -2.8756 17.1184 2.7941 -0.9345 8.6682 -0.0000 -0.0000 0.0000 -87.9127 7.3970 -16.8838 10.0257 -16.7797 -1.4824 -0.0000 -0.0000 42.4059 5.4509 21.5030 2.0033 -7.1250 0.0000 -0.0000 -22.9675 50.1111 -3.0346 -0.0000 -0.0000 0.0000 84.0583 -6.9839 -33.9976 -6.5301 11.1434 -0.6377 0.0000 0.0000 47.5072 -15.1936 -32.5979 8.3237 7.1250 -0.0000 -0.0000 20.5612 -62.3448 -8.8689
-8.8330 17.9478 4.7264 230.3060 -83.9819 -222.4700 0.0000 0.0000 0.0000 -14.6036 -11.0015 -19.7013 1.2755 7.1576 20.1832 0.0584 2.0890 -5.8322 0.0001 -0.0737 -0.2026 0.0000 0.0000 0.0000 22.8678 1.1759 -12.3984 -6.7750 -15.1395 48.0183 0.0971 -6.2297 0.8105 -0.0022 -0.3008 0.8265 2.5622 2.8623 -1.2320 1.7002 3.7872 -1.8750 0.3191 1.8572 -1.1821 -4.4847 -1.7159 -19.1452 6.8866 -2.6101 17.2428 2.7409 -0.8127 8.6923 -0.0000 0.0000 0.0000 -87.5299 7.0027 -17.0862 9.9750 -16.7004 -1.4678 -0.0000 -0.0000 42.6270 5.9204 21.7239 2.1981 -7.1250 0.0000 -0.0000 -22.6447 50.3869 -3.1473 -0.0000 0.0000 0.0000 83.6686 -8.0418 -33.9880 -6.6195 11.2913 -0.6551 0.0000 0.0000 46.7306 -14.8621 -32.4947 8.1136 7.1250 -0.0000 -0.0000 20.8308 -62.1654 -8.9023
-9.0074 17.9590 4.7366 227.9160 -84.1251 -220.1860 0.0000 0.0000 0.0000 -15.1781 -10.7109 -18.9286 1.2654 7.1304 20.1024 0.0708 1.7894 -6.0201 0.0000 0.0190 0.0522 0.0000 0.0000 0.0000 22.3468 1.4319 -13.4586 -7.1490 -15.4561 49.4358 0.1129 -6.8376 1.0986 -0.0032 -0.3680 1.0112 2.2845 2.5810 -1.1507 1.6853 3.4175 -1.8620 0.4525 1.6764 -1.2337 -4.2982 -1.5104 -19.1743 6.7318 -2.3546 17.3767 2.6921 -0.6955 8.7224 -0.0000 0.0000 0.0000 -87.1322 6.5833 -17.2692 9.9245 -16.6214 -1.4533 -0.0000 -0.0000 42.8597 6.3772 21.9314 2.3903 -7.1250 0.0000 -0.0000 -22.3256 50.6497 -3.2483 -0.0000 0.0000 0.0000 83.2576 -9.0525 -33.8274 -6.7141 11.4478 -0.6738 0.0000 0.0000 45.8174 -14.5388 -32.4074 7.9128 7.1250 -0.0000 -0.0000 21.1045 -62.0035 -8.9442
-9.1802 17.9702 4.7462 225.5820 -84.2746 -217.9570 0.0000 0.0000 0.0000 -15.7445 -10.4205 -18.1407 1.2513 7.0918 19.9878 0.0833 1.4870 -6.2131 0.0003 0.1059 0.2910 0.0000 0.0000 0.0000 21.8377 1.6852 -14.5410 -7.5091 -15.7460 50.7746 0.1310 -7.4320 1.3047 -0.0047 -0.4440 1.2200 2.0073 2.2967 -1.0643 1.6722 3.0435 -1.8491 0.5885 1.4935 -1.2853 -4.1124 -1.3117 -19.1966 6.5738 -2.1078 17.5115 2.6412 -0.5831 8.7531 0.0000 0.0000 0.0000 -86.7201 6.1360 -17.4321 9.8747 -16.5433 -1.4391 -0.0000 -0.0000 43.0972 6.8143 22.1549 2.5802 -7.1250 0.0000 -0.0000 -22.0315 50.9255 -3.3561 0.0000 0.0000 0.0000 82.8311 -10.0147 -33.5490 -6.8145 11.6135 -0.6938 0.0000 0.0000 44.7937 -14.2333 -32.3398 7.7274 7.1250 -0.0000 -0.0000 21.3748 -61.8647 -8.9943
-9.3515 17.9813 4.7553 223.3090 -84.4325 -215.7890 0.0000 0.0000 0.0000 -16.3005 -10.1319 -17.3430 1.2337 7.0436 19.8447 0.0958 1.1849 -6.4084 0.0008 0.1772 0.4867 0.0000 0.0000 0.0000 21.3420 1.9333 -15.6397 -7.8500 -16.0078 52.0206 0.1520 -8.0138 1.4273 -0.0067 -0.5298 1.4558 1.7309 2.0105 -0.9736 1.6609 2.6664 -1.8351 0.7275 1.3091 -1.3350 -3.9375 -1.1233 -19.2197 6.4202 -1.8731 17.6505 2.5921 -0.4767 8.7872 -0.0000 -0.0000 0.0000 -86.2942 5.6580 -17.5743 9.8252 -16.4657 -1.4250 -0.0000 -0.0000 43.3428 7.2262 22.3772 2.7636 -7.1250 0.0000 -0.0000 -21.7595 51.1978 -3.4613 -0.0000 -0.0000 0.0000 82.3918 -10.9204 -33.1937 -6.9183 11.7847 -0.7149 0.0000 0.0000 43.6925 -13.9558 -32.2929 7.5627 7.1250 -0.0000 -0.0000 21.6322 -61.7524 -9.0506
-9.5210 17.9921 4.7636 221.0230 -84.5906 -213.6030 0.0000 0.0000 0.0000 -16.8432 -9.8393 -16.5421 1.2129 6.9863 19.6746 0.1087 0.8888 -6.6183 0.0013 0.2305 0.6333 0.0000 0.0000 0.0000 20.8607 2.1849 -16.7523 -8.1682 -16.2416 53.1663 0.1761 -8.5821 1.4669 -0.0094 -0.6245 1.7161 1.4546 1.7262 -0.8810 1.6514 2.2912 -1.8217 0.8695 1.1257 -1.3831 -3.7687 -0.9443 -19.2410 6.2682 -1.6499 17.7913 2.5431 -0.3761 8.8233 0.0000 0.0000 0.0000 -85.8546 5.1528 -17.6832 9.7777 -16.3911 -1.4116 -0.0000 -0.0000 43.5823 7.6185 22.6092 2.9437 -7.1250 0.0000 -0.0000 -21.5098 51.4770 -3.5703 0.0000 0.0000 0.0000 81.9453 -11.7688 -32.7922 -7.0257 11.9615 -0.7370 0.0000 0.0000 42.5406 -13.7072 -32.2682 7.4192 7.1250 -0.0000 -0.0000 21.8775 -61.6681 -9.1150
-9.6890 18.0027 4.7713 218.7910 -84.7547 -211.4690 0.0000 0.0000 0.0000 -17.3706 -9.5468 -15.7364 1.1894 6.9206 19.4803 0.1221 0.5861 -6.8399 0.0016 0.2612 0.7178 0.0000 0.0000 0.0000 20.3972 2.4285 -17.8688 -8.4579 -16.4459 54.1956 0.2037 -9.1398 1.4249 -0.0128 -0.7317 2.0109 1.1822 1.4421 -0.7844 1.6440 1.9157 -1.8079 1.0129 0.9422 -1.4298 -3.6077 -0.7758 -19.2591 6.1184 -1.4394 17.9331 2.4945 -0.2819 8.8607 -0.0000 -0.0000 0.0000 -85.4023 4.6197 -17.7555 9.7334 -16.3214 -1.3991 -0.0000 -0.0000 43.8110 7.9941 22.8411 3.1203 -7.1250 0.0000 -0.0000 -21.2751 51.7545 -3.6774 -0.0000 -0.0000 0.0000 81.4956 -12.5571 -32.3776 -7.1347 12.1408 -0.7597 0.0000 0.0000 41.3663 -13.4957 -32.2661 7.3012 7.1250 -0.0000 -0.0000 22.1020 -61.6139 -9.1852
-9.8555 18.0128 4.7783 216.5930 -84.9228 -209.3650 0.0000 0.0000 0.0000 -17.8809 -9.2518 -14.9287 1.1632 6.8467 19.2619 0.1357 0.2728 -7.0619 0.0019 0.2814 0.7732 0.0000 0.0000 0.0000 19.9527 2.6645 -18.9839 -8.7145 -16.6204 55.0973 0.2347 -9.6854 1.3061 -0.0173 -0.8504 2.3374 0.9138 1.1603 -0.6867 1.6393 1.5425 -1.7935 1.1580 0.7599 -1.4731 -3.4538 -0.6184 -19.2746 5.9701 -1.2424 18.0750 2.4459 -0.1946 8.8992 -0.0000 0.0000 0.0000 -84.9390 4.0584 -17.7857 9.6928 -16.2577 -1.3877 -0.0000 -0.0000 44.0226 8.3522 23.0754 3.2933 -7.1250 0.0000 -0.0000 -21.0580 52.0327 -3.7846 -0.0000 0.0000 0.0000 81.0476 -13.2832 -31.9764 -7.2452 12.3221 -0.7831 0.0000 0.0000 40.1922 -13.3243 -32.2892 7.2106 7.1250 -0.0000 -0.0000 22.3054 -61.5927 -9.2632
-10.0205 18.0224 4.7847 214.4270 -85.0933 -207.2900 0.0000 0.0000 0.0000 -18.3713 -8.9543 -14.1225 1.1349 6.7659 19.0236 0.1491 -0.0452 -7.2767 0.0019 0.2847 0.7822 0.0000 0.0000 0.0000 19.5291 2.8933 -20.0909 -8.9336 -16.7648 55.8600 0.2690 -10.2190 1.1138 -0.0233 -0.9848 2.7070 0.6510 0.8818 -0.5880 1.6372 1.1733 -1.7794 1.3039 0.5795 -1.5141 -3.3083 -0.4728 -19.2872 5.8240 -1.0594 18.2178 2.3976 -0.1144 8.9390 -0.0000 0.0000 0.0000 -84.4652 3.4704 -17.7682 9.6571 -16.2015 -1.3777 -0.0000 -0.0000 44.2093 8.6943 23.3103 3.4629 -7.1250 0.0000 -0.0000 -20.8558 52.3098 -3.8909 -0.0000 0.0000 0.0000 80.6051 -13.9479 -31.6014 -7.3559 12.5036 -0.8069 0.0000 0.0000 39.0294 -13.2043 -32.3384 7.1536 7.1250 -0.0000 -0.0000 22.4770 -61.6079 -9.3467
-10.1840 18.0314 4.7904 212.2810 -85.2665 -205.2280 0.0000 0.0000 0.0000 -18.8423 -8.6570 -13.3184 1.1048 6.6785 18.7663 0.1620 -0.3618 -7.4806 0.0018 0.2756 0.7571 0.0000 0.0000 0.0000 19.1264 3.1140 -21.1837 -9.1108 -16.8785 56.4724 0.3063 -10.7384 0.8537 -0.0309 -1.1340 3.1176 0.3938 0.6079 -0.4897 1.6376 0.8095 -1.7656 1.4503 0.4017 -1.5520 -3.1748 -0.3385 -19.2944 5.6857 -0.8902 18.3586 2.3521 -0.0408 8.9786 -0.0000 0.0000 0.0000 -83.9830 2.8566 -17.6961 9.6279 -16.1555 -1.3696 -0.0000 -0.0000 44.3622 9.0191 23.5496 3.6287 -7.1250 0.0000 -0.0000 -20.6722 52.5891 -3.9992 -0.0000 0.0000 0.0000 80.1732 -14.5504 -31.2727 -7.4665 12.6844 -0.8310 0.0000 0.0000 37.8949 -13.1373 -32.4147 7.1312 7.1250 -0.0000 -0.0000 22.6162 -61.6609 -9.4363
